<svg width="24" height="24" viewBox="0 0 24 24" fill="none" xmlns="http://www.w3.org/2000/svg">
<path fill-rule="evenodd" clip-rule="evenodd" d="M14.5561 8.10173C15.0522 8.13273 15.4292 8.56003 15.3982 9.05612L14.8982 17.0561C14.8672 17.5522 14.4399 17.9292 13.9438 17.8982C13.4477 17.8672 13.0707 17.4399 13.1017 16.9438L13.6017 8.94384C13.6327 8.44775 14.06 8.07072 14.5561 8.10173Z" fill="currentColor"/>
<path fill-rule="evenodd" clip-rule="evenodd" d="M9.44383 8.10173C8.94775 8.13273 8.57072 8.56003 8.60173 9.05612L9.10173 17.0561C9.13273 17.5522 9.56003 17.9292 10.0561 17.8982C10.5522 17.8672 10.9292 17.4399 10.8982 16.9438L10.3982 8.94384C10.3672 8.44775 9.93992 8.07072 9.44383 8.10173Z" fill="currentColor"/>
<path fill-rule="evenodd" clip-rule="evenodd" d="M2.99998 4.09998C2.50292 4.09998 2.09998 4.50292 2.09998 4.99998C2.09998 5.49703 2.50292 5.89998 2.99998 5.89998H4.1804L5.33503 18.216C5.38037 18.6998 5.41917 19.1138 5.47805 19.4533C5.54018 19.8116 5.63499 20.1567 5.82894 20.4827C6.12314 20.9772 6.55781 21.373 7.07764 21.6198C7.42033 21.7825 7.77278 21.8447 8.13527 21.8731C8.47885 21.9 8.89467 21.9 9.38064 21.9H14.6193C15.1053 21.9 15.5211 21.9 15.8647 21.8731C16.2272 21.8447 16.5796 21.7825 16.9223 21.6198C17.4421 21.373 17.8768 20.9772 18.171 20.4827C18.365 20.1567 18.4598 19.8116 18.5219 19.4533C18.5808 19.1138 18.6196 18.6998 18.6649 18.216L19.8195 5.89998H21C21.497 5.89998 21.9 5.49703 21.9 4.99998C21.9 4.50292 21.497 4.09998 21 4.09998H15.7956C15.3893 2.37996 13.8441 1.09998 12 1.09998C10.1558 1.09998 8.61063 2.37996 8.20434 4.09998H2.99998ZM7.12405 18.0147C7.17339 18.5409 7.2062 18.884 7.25158 19.1458C7.29507 19.3965 7.33946 19.5011 7.37589 19.5624C7.48748 19.75 7.65236 19.9001 7.84953 19.9937C7.91391 20.0243 8.02222 20.0587 8.27594 20.0786C8.54075 20.0993 8.88544 20.1 9.41401 20.1H14.5859C15.1145 20.1 15.4592 20.0993 15.724 20.0786C15.9777 20.0587 16.086 20.0243 16.1504 19.9937C16.3476 19.9001 16.5125 19.75 16.6241 19.5624C16.6605 19.5011 16.7049 19.3965 16.7484 19.1458C16.7938 18.884 16.8266 18.5409 16.8759 18.0147L18.0117 5.89998H5.9883L7.12405 18.0147ZM12 2.89998C11.1623 2.89998 10.4391 3.39049 10.1021 4.09998H13.8979C13.5608 3.39049 12.8377 2.89998 12 2.89998Z" fill="currentColor"/>
</svg>
