<svg width="24" height="24" viewBox="0 0 24 24" fill="none" xmlns="http://www.w3.org/2000/svg">
<path d="M6 6.6C6 6.03995 6 5.75992 6.10899 5.54601C6.20487 5.35785 6.35785 5.20487 6.54601 5.10899C6.75992 5 7.03995 5 7.6 5H8.4C8.96005 5 9.24008 5 9.45399 5.10899C9.64215 5.20487 9.79513 5.35785 9.89101 5.54601C10 5.75992 10 6.03995 10 6.6V17.4C10 17.9601 10 18.2401 9.89101 18.454C9.79513 18.6422 9.64215 18.7951 9.45399 18.891C9.24008 19 8.96005 19 8.4 19H7.6C7.03995 19 6.75992 19 6.54601 18.891C6.35785 18.7951 6.20487 18.6422 6.10899 18.454C6 18.2401 6 17.9601 6 17.4V6.6Z" fill="currentColor"/>
<path d="M6 6.6C6 6.03995 6 5.75992 6.10899 5.54601C6.20487 5.35785 6.35785 5.20487 6.54601 5.10899C6.75992 5 7.03995 5 7.6 5H8.4C8.96005 5 9.24008 5 9.45399 5.10899C9.64215 5.20487 9.79513 5.35785 9.89101 5.54601C10 5.75992 10 6.03995 10 6.6V17.4C10 17.9601 10 18.2401 9.89101 18.454C9.79513 18.6422 9.64215 18.7951 9.45399 18.891C9.24008 19 8.96005 19 8.4 19H7.6C7.03995 19 6.75992 19 6.54601 18.891C6.35785 18.7951 6.20487 18.6422 6.10899 18.454C6 18.2401 6 17.9601 6 17.4V6.6Z" fill="currentColor" fill-opacity="0.2"/>
<path d="M6 6.6C6 6.03995 6 5.75992 6.10899 5.54601C6.20487 5.35785 6.35785 5.20487 6.54601 5.10899C6.75992 5 7.03995 5 7.6 5H8.4C8.96005 5 9.24008 5 9.45399 5.10899C9.64215 5.20487 9.79513 5.35785 9.89101 5.54601C10 5.75992 10 6.03995 10 6.6V17.4C10 17.9601 10 18.2401 9.89101 18.454C9.79513 18.6422 9.64215 18.7951 9.45399 18.891C9.24008 19 8.96005 19 8.4 19H7.6C7.03995 19 6.75992 19 6.54601 18.891C6.35785 18.7951 6.20487 18.6422 6.10899 18.454C6 18.2401 6 17.9601 6 17.4V6.6Z" fill="currentColor" fill-opacity="0.2"/>
<path d="M6 6.6C6 6.03995 6 5.75992 6.10899 5.54601C6.20487 5.35785 6.35785 5.20487 6.54601 5.10899C6.75992 5 7.03995 5 7.6 5H8.4C8.96005 5 9.24008 5 9.45399 5.10899C9.64215 5.20487 9.79513 5.35785 9.89101 5.54601C10 5.75992 10 6.03995 10 6.6V17.4C10 17.9601 10 18.2401 9.89101 18.454C9.79513 18.6422 9.64215 18.7951 9.45399 18.891C9.24008 19 8.96005 19 8.4 19H7.6C7.03995 19 6.75992 19 6.54601 18.891C6.35785 18.7951 6.20487 18.6422 6.10899 18.454C6 18.2401 6 17.9601 6 17.4V6.6Z" fill="currentColor" fill-opacity="0.2"/>
<path d="M6 6.6C6 6.03995 6 5.75992 6.10899 5.54601C6.20487 5.35785 6.35785 5.20487 6.54601 5.10899C6.75992 5 7.03995 5 7.6 5H8.4C8.96005 5 9.24008 5 9.45399 5.10899C9.64215 5.20487 9.79513 5.35785 9.89101 5.54601C10 5.75992 10 6.03995 10 6.6V17.4C10 17.9601 10 18.2401 9.89101 18.454C9.79513 18.6422 9.64215 18.7951 9.45399 18.891C9.24008 19 8.96005 19 8.4 19H7.6C7.03995 19 6.75992 19 6.54601 18.891C6.35785 18.7951 6.20487 18.6422 6.10899 18.454C6 18.2401 6 17.9601 6 17.4V6.6Z" fill="currentColor" fill-opacity="0.2"/>
<path d="M6 6.6C6 6.03995 6 5.75992 6.10899 5.54601C6.20487 5.35785 6.35785 5.20487 6.54601 5.10899C6.75992 5 7.03995 5 7.6 5H8.4C8.96005 5 9.24008 5 9.45399 5.10899C9.64215 5.20487 9.79513 5.35785 9.89101 5.54601C10 5.75992 10 6.03995 10 6.6V17.4C10 17.9601 10 18.2401 9.89101 18.454C9.79513 18.6422 9.64215 18.7951 9.45399 18.891C9.24008 19 8.96005 19 8.4 19H7.6C7.03995 19 6.75992 19 6.54601 18.891C6.35785 18.7951 6.20487 18.6422 6.10899 18.454C6 18.2401 6 17.9601 6 17.4V6.6Z" fill="currentColor" fill-opacity="0.2"/>
<path d="M14 6.6C14 6.03995 14 5.75992 14.109 5.54601C14.2049 5.35785 14.3578 5.20487 14.546 5.10899C14.7599 5 15.0399 5 15.6 5H16.4C16.9601 5 17.2401 5 17.454 5.10899C17.6422 5.20487 17.7951 5.35785 17.891 5.54601C18 5.75992 18 6.03995 18 6.6V17.4C18 17.9601 18 18.2401 17.891 18.454C17.7951 18.6422 17.6422 18.7951 17.454 18.891C17.2401 19 16.9601 19 16.4 19H15.6C15.0399 19 14.7599 19 14.546 18.891C14.3578 18.7951 14.2049 18.6422 14.109 18.454C14 18.2401 14 17.9601 14 17.4V6.6Z" fill="currentColor"/>
<path d="M14 6.6C14 6.03995 14 5.75992 14.109 5.54601C14.2049 5.35785 14.3578 5.20487 14.546 5.10899C14.7599 5 15.0399 5 15.6 5H16.4C16.9601 5 17.2401 5 17.454 5.10899C17.6422 5.20487 17.7951 5.35785 17.891 5.54601C18 5.75992 18 6.03995 18 6.6V17.4C18 17.9601 18 18.2401 17.891 18.454C17.7951 18.6422 17.6422 18.7951 17.454 18.891C17.2401 19 16.9601 19 16.4 19H15.6C15.0399 19 14.7599 19 14.546 18.891C14.3578 18.7951 14.2049 18.6422 14.109 18.454C14 18.2401 14 17.9601 14 17.4V6.6Z" fill="currentColor" fill-opacity="0.2"/>
<path d="M14 6.6C14 6.03995 14 5.75992 14.109 5.54601C14.2049 5.35785 14.3578 5.20487 14.546 5.10899C14.7599 5 15.0399 5 15.6 5H16.4C16.9601 5 17.2401 5 17.454 5.10899C17.6422 5.20487 17.7951 5.35785 17.891 5.54601C18 5.75992 18 6.03995 18 6.6V17.4C18 17.9601 18 18.2401 17.891 18.454C17.7951 18.6422 17.6422 18.7951 17.454 18.891C17.2401 19 16.9601 19 16.4 19H15.6C15.0399 19 14.7599 19 14.546 18.891C14.3578 18.7951 14.2049 18.6422 14.109 18.454C14 18.2401 14 17.9601 14 17.4V6.6Z" fill="currentColor" fill-opacity="0.2"/>
<path d="M14 6.6C14 6.03995 14 5.75992 14.109 5.54601C14.2049 5.35785 14.3578 5.20487 14.546 5.10899C14.7599 5 15.0399 5 15.6 5H16.4C16.9601 5 17.2401 5 17.454 5.10899C17.6422 5.20487 17.7951 5.35785 17.891 5.54601C18 5.75992 18 6.03995 18 6.6V17.4C18 17.9601 18 18.2401 17.891 18.454C17.7951 18.6422 17.6422 18.7951 17.454 18.891C17.2401 19 16.9601 19 16.4 19H15.6C15.0399 19 14.7599 19 14.546 18.891C14.3578 18.7951 14.2049 18.6422 14.109 18.454C14 18.2401 14 17.9601 14 17.4V6.6Z" fill="currentColor" fill-opacity="0.2"/>
<path d="M14 6.6C14 6.03995 14 5.75992 14.109 5.54601C14.2049 5.35785 14.3578 5.20487 14.546 5.10899C14.7599 5 15.0399 5 15.6 5H16.4C16.9601 5 17.2401 5 17.454 5.10899C17.6422 5.20487 17.7951 5.35785 17.891 5.54601C18 5.75992 18 6.03995 18 6.6V17.4C18 17.9601 18 18.2401 17.891 18.454C17.7951 18.6422 17.6422 18.7951 17.454 18.891C17.2401 19 16.9601 19 16.4 19H15.6C15.0399 19 14.7599 19 14.546 18.891C14.3578 18.7951 14.2049 18.6422 14.109 18.454C14 18.2401 14 17.9601 14 17.4V6.6Z" fill="currentColor" fill-opacity="0.2"/>
<path d="M14 6.6C14 6.03995 14 5.75992 14.109 5.54601C14.2049 5.35785 14.3578 5.20487 14.546 5.10899C14.7599 5 15.0399 5 15.6 5H16.4C16.9601 5 17.2401 5 17.454 5.10899C17.6422 5.20487 17.7951 5.35785 17.891 5.54601C18 5.75992 18 6.03995 18 6.6V17.4C18 17.9601 18 18.2401 17.891 18.454C17.7951 18.6422 17.6422 18.7951 17.454 18.891C17.2401 19 16.9601 19 16.4 19H15.6C15.0399 19 14.7599 19 14.546 18.891C14.3578 18.7951 14.2049 18.6422 14.109 18.454C14 18.2401 14 17.9601 14 17.4V6.6Z" fill="currentColor" fill-opacity="0.2"/>
</svg>
