<svg width="24" height="24" viewBox="0 0 24 24" fill="none" xmlns="http://www.w3.org/2000/svg">
<path d="M18.5 11.134C19.1667 11.5189 19.1667 12.4811 18.5 12.866L9.5 18.0622C8.83333 18.4471 8 17.966 8 17.1962V6.80386C8 6.03406 8.83333 5.55293 9.5 5.93783L18.5 11.134Z" fill="currentColor"/>
<path d="M18.5 11.134C19.1667 11.5189 19.1667 12.4811 18.5 12.866L9.5 18.0622C8.83333 18.4471 8 17.966 8 17.1962V6.80386C8 6.03406 8.83333 5.55293 9.5 5.93783L18.5 11.134Z" fill="currentColor" fill-opacity="0.2"/>
<path d="M18.5 11.134C19.1667 11.5189 19.1667 12.4811 18.5 12.866L9.5 18.0622C8.83333 18.4471 8 17.966 8 17.1962V6.80386C8 6.03406 8.83333 5.55293 9.5 5.93783L18.5 11.134Z" fill="currentColor" fill-opacity="0.2"/>
<path d="M18.5 11.134C19.1667 11.5189 19.1667 12.4811 18.5 12.866L9.5 18.0622C8.83333 18.4471 8 17.966 8 17.1962V6.80386C8 6.03406 8.83333 5.55293 9.5 5.93783L18.5 11.134Z" fill="currentColor" fill-opacity="0.2"/>
<path d="M18.5 11.134C19.1667 11.5189 19.1667 12.4811 18.5 12.866L9.5 18.0622C8.83333 18.4471 8 17.966 8 17.1962V6.80386C8 6.03406 8.83333 5.55293 9.5 5.93783L18.5 11.134Z" fill="currentColor" fill-opacity="0.2"/>
<path d="M18.5 11.134C19.1667 11.5189 19.1667 12.4811 18.5 12.866L9.5 18.0622C8.83333 18.4471 8 17.966 8 17.1962V6.80386C8 6.03406 8.83333 5.55293 9.5 5.93783L18.5 11.134Z" fill="currentColor" fill-opacity="0.2"/>
</svg>
