<svg width="24" height="24" viewBox="0 0 24 24" fill="none" xmlns="http://www.w3.org/2000/svg">
<path d="M2.0047 12C2.0047 8.74156 4.64716 6.10004 7.9068 6.10004H17.9328L17.369 5.5364C17.0174 5.18492 17.0174 4.61508 17.369 4.2636C17.7205 3.91213 18.2906 3.91213 18.6422 4.2636L20.7429 6.36358C21.0945 6.71505 21.0945 7.2849 20.7429 7.63637L18.6422 9.73635C18.2906 10.0878 17.7205 10.0878 17.369 9.73635C17.0174 9.38488 17.0174 8.81503 17.369 8.46355L17.9327 7.90004H7.9068C5.64163 7.90004 3.80534 9.73567 3.80534 12V12.0967C3.80534 12.5938 3.40225 12.9967 2.90502 12.9967C2.40779 12.9967 2.0047 12.5938 2.0047 12.0967V12Z" fill="currentColor"/>
<path d="M21.1044 11.0033C21.6016 11.0033 22.0047 11.4063 22.0047 11.9033V12C22.0047 15.2585 19.3622 17.9 16.1026 17.9H6.0742L6.63792 18.4636C6.98952 18.815 6.98952 19.3849 6.63792 19.7363C6.28632 20.0878 5.71627 20.0878 5.36467 19.7363L3.26395 17.6364C2.91235 17.2849 2.91235 16.7151 3.26395 16.3636L5.36467 14.2636C5.71627 13.9121 6.28632 13.9121 6.63792 14.2636C6.98952 14.6151 6.98952 15.1849 6.63792 15.5364L6.07408 16.1H16.1026C18.3678 16.1 20.2041 14.2644 20.2041 12V11.9033C20.2041 11.4063 20.6071 11.0033 21.1044 11.0033Z" fill="currentColor"/>
</svg>
